<svg xmlns="http://www.w3.org/2000/svg" viewBox="0 0 750 471">
  <path d="M278.2 334.2l33.4-194.7h53.3l-33.4 194.7H278.2z" fill="#3C58BF"/>
  <path d="M524.3 142.7c-10.5-3.9-27-8.2-47.6-8.2-52.4 0-89.3 26.3-89.6 64.1-.3 27.9 26.4 43.5 46.5 52.8 20.7 9.5 27.6 15.6 27.5 24.2-.1 13-16.5 19-31.7 19-21.2 0-32.5-2.9-49.9-10.2l-6.8-3.1-7.4 43.2c12.4 5.4 35.3 10.1 59.1 10.3 55.8 0 92-26 92.4-66.4.2-22.1-14-38.9-44.7-52.8-18.6-9-30-15-29.9-24.2 0-8.1 9.7-16.8 30.5-16.8 17.4-.3 30 3.5 39.8 7.5l4.8 2.2 7.2-42.3.2-.1z" fill="#3C58BF"/>
  <path d="M661.6 139.5h-41c-12.7 0-22.2 3.5-27.8 16.1l-78.8 177.6h55.8s9.1-23.9 11.2-29.1c6.1 0 60.3.1 68 .1 1.6 6.8 6.5 29 6.5 29h49.3l-43.2-193.7zm-65.5 125c4.4-11.2 21.2-54.3 21.2-54.3-.3.5 4.4-11.3 7-18.6l3.6 16.8s10.2 46.3 12.3 56.1h-44.1z" fill="#3C58BF"/>
  <path d="M232.8 139.5l-52 132.7-5.6-27c-9.7-31-39.8-64.6-73.6-81.4l47.6 169.3h56.2l83.6-193.6h-56.2z" fill="#3C58BF"/>
  <path d="M131.9 139.5H46.5l-.7 3.8c66.7 16.1 110.8 54.9 129.1 101.5l-18.6-89.2c-3.2-12.2-12.6-15.6-24.4-16.1z" fill="#F9A533"/>
</svg>
